<?xml version="1.0"?>
<svg xmlns="http://www.w3.org/2000/svg" viewBox="0 0 64 64" ><g><g fill="#4370ff"><circle cx="56.984" cy="7.015" r="4.016" style="fill:#0A0E3E" /><circle cx="37.736" cy="56.985" r="4.016" style="fill:#0A0E3E" data-old_color="#4370FF"/><circle cx="7.016" cy="37.677" r="4.016" style="fill:#0A0E3E"/><circle cx="52.412" cy="47.437" r="4.016" style="fill:#0A0E3E"/><circle cx="11.247" cy="11.602" r="4.016" style="fill:#0A0E3E"/><circle cx="31.83" cy="32.212" r="6.023" style="fill:#0A0E3E"/></g><path d="m56.984 13.03a6.037 6.037 0 1 0 -5.434-3.451l-15.678 15.715a7.951 7.951 0 0 0 -8.094.006l-11.11-11.107a6.043 6.043 0 1 0 -2.829 2.828l11.1 11.1a7.952 7.952 0 0 0 -1.12 3.785l-11.705 2.594a6.009 6.009 0 1 0 .87 3.905l11.686-2.591a8.023 8.023 0 0 0 7.02 4.413l2.788 11.709a6.009 6.009 0 1 0 3.89-.936l-2.788-11.7a8.06 8.06 0 0 0 1.312-.876l9.772 7.245a5.962 5.962 0 0 0 -.268 1.772 6.02 6.02 0 1 0 2.651-4.984l-9.787-7.257a7.871 7.871 0 0 0 .331-.986h-4.291a4.022 4.022 0 1 1 0-4h4.291a8 8 0 0 0 -.882-2.1l15.656-15.692a5.977 5.977 0 0 0 2.619.608zm0-8.03a2.015 2.015 0 1 1 -2.016 2.015 2.018 2.018 0 0 1 2.016-2.015zm-45.737 8.617a2.015 2.015 0 1 1 2.016-2.017 2.018 2.018 0 0 1 -2.016 2.017zm-4.231 26.075a2.015 2.015 0 1 1 2.016-2.015 2.018 2.018 0 0 1 -2.016 2.015zm30.72 15.278a2.015 2.015 0 1 1 -2.016 2.015 2.018 2.018 0 0 1 2.016-2.015zm14.677-9.548a2.015 2.015 0 1 1 -2.013 2.015 2.018 2.018 0 0 1 2.013-2.015z" style="fill:#F8F00E"/></g> </svg>
