<?xml version="1.0"?>
<svg xmlns="http://www.w3.org/2000/svg" xmlns:xlink="http://www.w3.org/1999/xlink" version="1.1" id="Layer_1" x="0px" y="0px" viewBox="0 0 338.352 338.352" style="enable-background:new 0 0 338.352 338.352;" xml:space="preserve" width="512px" height="512px" class=""><g transform="matrix(-1 1.22465e-16 -1.22465e-16 -1 338.352 338.352)"><g>
	<g>
		<path d="M169.176,0C75.601,0,0,75.514,0,169.176s75.514,169.176,169.176,169.176s169.176-75.514,169.176-169.176    S262.752,0,169.176,0z M169.176,315.731c-81.191,0-146.556-65.365-146.556-146.556S87.986,22.619,169.176,22.619    s146.556,65.365,146.556,146.556S250.367,315.731,169.176,315.731z" data-original="#000000" class="active-path" data-old_color="#000000" fill="#F8F00E"/>
	</g>
</g><g>
	<g>
		<path d="M231.187,162.382l-74.396-74.396c-4.472-4.472-11.267-4.472-15.825,0c-4.472,4.472-4.472,11.267,0,15.826l65.365,65.365    l-65.365,65.365c-4.472,4.472-4.472,11.267,0,15.825c2.236,2.236,4.472,3.354,7.913,3.354c2.236,0,5.677-1.118,9.03-2.236    l73.278-73.278c2.236-2.236,3.355-4.472,3.355-7.913C234.542,166.94,233.424,164.618,231.187,162.382z" data-original="#000000" class="active-path" data-old_color="#000000" fill="#F8F00E"/>
	</g>
</g></g> </svg>
